<?xml version="1.0" encoding="UTF-8" standalone="no"?>
<!DOCTYPE svg PUBLIC "-//W3C//DTD SVG 1.1//EN"
 "http://www.w3.org/Graphics/SVG/1.1/DTD/svg11.dtd">
<!-- Generated by graphviz version 2.50.0 (0)
 -->
<!-- Pages: 1 -->
<svg width="488pt" height="620pt"
 viewBox="0.00 0.00 488.00 620.00" xmlns="http://www.w3.org/2000/svg" xmlns:xlink="http://www.w3.org/1999/xlink">
<g id="graph0" class="graph" transform="scale(1 1) rotate(0) translate(4 616)">
<polygon fill="#1e1e1e" stroke="transparent" points="-4,4 -4,-616 484,-616 484,4 -4,4"/>
<text text-anchor="middle" x="240" y="-9.6" font-family="Helvetica,sans-Serif" font-size="18.00" fill="#ffffff">Example End&#45;to&#45;End ML Workflow</text>
<g id="clust1" class="cluster">
<title>cluster_source</title>
<polygon fill="#ff9900" stroke="#ff9900" stroke-width="3" points="218,-529 218,-604 354,-604 354,-529 218,-529"/>
<text text-anchor="middle" x="286" y="-588.8" font-family="Helvetica,sans-Serif" font-size="14.00" fill="#ffffff">DATA SOURCE</text>
</g>
<g id="clust2" class="cluster">
<title>cluster_etl</title>
<polygon fill="#e25a1c" stroke="#e25a1c" stroke-width="3" points="164,-351 164,-499 408,-499 408,-351 164,-351"/>
<text text-anchor="middle" x="286" y="-483.8" font-family="Helvetica,sans-Serif" font-size="14.00" fill="#ffffff">ETL &amp; PRE&#45;PROCESSING</text>
</g>
<g id="clust3" class="cluster">
<title>cluster_modeling</title>
<polygon fill="#8a2be2" stroke="#8a2be2" stroke-width="3" points="8,-246 8,-321 472,-321 472,-246 8,-246"/>
<text text-anchor="middle" x="240" y="-305.8" font-family="Helvetica,sans-Serif" font-size="14.00" fill="#ffffff">MODELING &amp; ANALYSIS</text>
</g>
<g id="clust4" class="cluster">
<title>cluster_validation</title>
<polygon fill="#2ca02c" stroke="#2ca02c" stroke-width="3" points="183,-141 183,-216 389,-216 389,-141 183,-141"/>
<text text-anchor="middle" x="286" y="-200.8" font-family="Helvetica,sans-Serif" font-size="14.00" fill="#ffffff">VALIDATION</text>
</g>
<g id="clust5" class="cluster">
<title>cluster_deliverables</title>
<polygon fill="#1f77b4" stroke="#1f77b4" stroke-width="3" points="218,-36 218,-111 354,-111 354,-36 218,-36"/>
<text text-anchor="middle" x="286" y="-95.8" font-family="Helvetica,sans-Serif" font-size="14.00" fill="#ffffff">DELIVERABLES</text>
</g>
<!-- node_source -->
<g id="node1" class="node">
<title>node_source</title>
<polygon fill="#2b2b2b" stroke="black" points="345.5,-573 226.5,-573 226.5,-537 345.5,-537 345.5,-573"/>
<text text-anchor="middle" x="286" y="-558.4" font-family="Times,serif" font-size="12.00" fill="#ffffff">Cloud Data Lake</text>
<text text-anchor="middle" x="286" y="-545.4" font-family="Times,serif" font-size="12.00" fill="#ffffff">(Large&#45;Scale)</text>
</g>
<!-- etl_query -->
<g id="node2" class="node">
<title>etl_query</title>
<polygon fill="#2b2b2b" stroke="black" points="357.5,-468 214.5,-468 214.5,-432 357.5,-432 357.5,-468"/>
<text text-anchor="middle" x="286" y="-453.4" font-family="Times,serif" font-size="12.00" fill="#ffffff">Distributed Querying</text>
<text text-anchor="middle" x="286" y="-440.4" font-family="Times,serif" font-size="12.00" fill="#ffffff">(e.g., Apache Spark)</text>
</g>
<!-- node_source&#45;&gt;etl_query -->
<g id="edge2" class="edge">
<title>node_source&#45;&gt;etl_query</title>
<path fill="none" stroke="#00bfff" stroke-width="2.5" d="M286,-536.99C286,-521.04 286,-496.91 286,-478.27"/>
<polygon fill="#00bfff" stroke="#00bfff" stroke-width="2.5" points="286,-468.03 290.5,-478.03 286.75,-473.03 286.75,-478.03 286,-478.03 285.25,-478.03 285.25,-473.03 281.5,-478.03 286,-468.03 286,-468.03"/>
<text text-anchor="middle" x="307" y="-510.2" font-family="Helvetica,sans-Serif" font-size="11.00" fill="#cccccc"> Ingest </text>
</g>
<!-- etl_transform -->
<g id="node3" class="node">
<title>etl_transform</title>
<polygon fill="#2b2b2b" stroke="black" points="399.5,-395 172.5,-395 172.5,-359 399.5,-359 399.5,-395"/>
<text text-anchor="middle" x="286" y="-380.4" font-family="Times,serif" font-size="12.00" fill="#ffffff">High&#45;Performance Transformation</text>
<text text-anchor="middle" x="286" y="-367.4" font-family="Times,serif" font-size="12.00" fill="#ffffff">(e.g., Polars)</text>
</g>
<!-- etl_query&#45;&gt;etl_transform -->
<g id="edge1" class="edge">
<title>etl_query&#45;&gt;etl_transform</title>
<path fill="none" stroke="#00bfff" stroke-width="2.5" d="M286,-431.81C286,-423.79 286,-414.05 286,-405.07"/>
<polygon fill="#00bfff" stroke="#00bfff" stroke-width="2.5" points="286,-395.03 290.5,-405.03 286.75,-400.03 286.75,-405.03 286,-405.03 285.25,-405.03 285.25,-400.03 281.5,-405.03 286,-395.03 286,-395.03"/>
</g>
<!-- model_dl -->
<g id="node4" class="node">
<title>model_dl</title>
<polygon fill="#2b2b2b" stroke="black" points="208,-290 16,-290 16,-254 208,-254 208,-290"/>
<text text-anchor="middle" x="112" y="-275.4" font-family="Times,serif" font-size="12.00" fill="#ffffff">Deep Learning</text>
<text text-anchor="middle" x="112" y="-262.4" font-family="Times,serif" font-size="12.00" fill="#ffffff">(e.g., PyTorch, HuggingFace)</text>
</g>
<!-- etl_transform&#45;&gt;model_dl -->
<g id="edge3" class="edge">
<title>etl_transform&#45;&gt;model_dl</title>
<path fill="none" stroke="#00bfff" stroke-width="2.5" d="M251.06,-358.82C240.34,-353.34 228.58,-347.1 218,-341 193.3,-326.77 166.27,-309.39 145.68,-295.77"/>
<polygon fill="#00bfff" stroke="#00bfff" stroke-width="2.5" points="137.28,-290.18 148.1,-291.97 141.86,-292.33 146.02,-295.1 145.61,-295.72 145.19,-296.34 141.03,-293.58 143.12,-299.47 137.28,-290.18 137.28,-290.18"/>
<text text-anchor="middle" x="250" y="-332.2" font-family="Helvetica,sans-Serif" font-size="11.00" fill="#cccccc"> Load Data </text>
</g>
<!-- model_automl -->
<g id="node5" class="node">
<title>model_automl</title>
<polygon fill="#2b2b2b" stroke="black" points="345.5,-290 226.5,-290 226.5,-254 345.5,-254 345.5,-290"/>
<text text-anchor="middle" x="286" y="-275.4" font-family="Times,serif" font-size="12.00" fill="#ffffff">AutoML</text>
<text text-anchor="middle" x="286" y="-262.4" font-family="Times,serif" font-size="12.00" fill="#ffffff">(e.g., AutoGluon)</text>
</g>
<!-- etl_transform&#45;&gt;model_automl -->
<g id="edge4" class="edge">
<title>etl_transform&#45;&gt;model_automl</title>
<path fill="none" stroke="#00bfff" stroke-width="2.5" d="M286,-358.99C286,-343.04 286,-318.91 286,-300.27"/>
<polygon fill="#00bfff" stroke="#00bfff" stroke-width="2.5" points="286,-290.03 290.5,-300.03 286.75,-295.03 286.75,-300.03 286,-300.03 285.25,-300.03 285.25,-295.03 281.5,-300.03 286,-290.03 286,-290.03"/>
</g>
<!-- model_analysis -->
<g id="node6" class="node">
<title>model_analysis</title>
<polygon fill="#2b2b2b" stroke="black" points="464,-290 364,-290 364,-254 464,-254 464,-290"/>
<text text-anchor="middle" x="414" y="-275.4" font-family="Times,serif" font-size="12.00" fill="#ffffff">Data Analysis</text>
<text text-anchor="middle" x="414" y="-262.4" font-family="Times,serif" font-size="12.00" fill="#ffffff">(e.g., Polars)</text>
</g>
<!-- etl_transform&#45;&gt;model_analysis -->
<g id="edge5" class="edge">
<title>etl_transform&#45;&gt;model_analysis</title>
<path fill="none" stroke="#00bfff" stroke-width="2.5" d="M307.49,-358.96C321.13,-348.13 339.13,-333.78 355,-321 364.78,-313.12 375.44,-304.47 384.98,-296.71"/>
<polygon fill="#00bfff" stroke="#00bfff" stroke-width="2.5" points="393.02,-290.16 388.11,-299.96 389.61,-293.9 385.74,-297.06 385.26,-296.47 384.79,-295.89 388.67,-292.73 382.42,-292.99 393.02,-290.16 393.02,-290.16"/>
</g>
<!-- node_validation -->
<g id="node7" class="node">
<title>node_validation</title>
<polygon fill="#2b2b2b" stroke="black" points="381,-185 191,-185 191,-149 381,-149 381,-185"/>
<text text-anchor="middle" x="286" y="-163.9" font-family="Times,serif" font-size="12.00" fill="#ffffff">Offline Model Benchmarking</text>
</g>
<!-- model_dl&#45;&gt;node_validation -->
<g id="edge6" class="edge">
<title>model_dl&#45;&gt;node_validation</title>
<path fill="none" stroke="#00bfff" stroke-width="2.5" d="M140.73,-253.99C170.2,-236.55 216.18,-209.33 248.5,-190.2"/>
<polygon fill="#00bfff" stroke="#00bfff" stroke-width="2.5" points="257.22,-185.03 250.91,-194 253.3,-188.23 249,-190.77 248.62,-190.13 248.24,-189.48 252.54,-186.94 246.33,-186.26 257.22,-185.03 257.22,-185.03"/>
<text text-anchor="middle" x="216" y="-227.2" font-family="Helvetica,sans-Serif" font-size="11.00" fill="#cccccc"> Evaluate </text>
</g>
<!-- model_automl&#45;&gt;node_validation -->
<g id="edge7" class="edge">
<title>model_automl&#45;&gt;node_validation</title>
<path fill="none" stroke="#00bfff" stroke-width="2.5" d="M286,-253.99C286,-238.04 286,-213.91 286,-195.27"/>
<polygon fill="#00bfff" stroke="#00bfff" stroke-width="2.5" points="286,-185.03 290.5,-195.03 286.75,-190.03 286.75,-195.03 286,-195.03 285.25,-195.03 285.25,-190.03 281.5,-195.03 286,-185.03 286,-185.03"/>
</g>
<!-- model_analysis&#45;&gt;node_validation -->
<g id="edge8" class="edge">
<title>model_analysis&#45;&gt;node_validation</title>
<path fill="none" stroke="#00bfff" stroke-width="2.5" d="M392.86,-253.99C371.65,-236.92 338.8,-210.49 315.13,-191.44"/>
<polygon fill="#00bfff" stroke="#00bfff" stroke-width="2.5" points="307.17,-185.03 317.78,-187.8 311.53,-187.58 315.43,-190.72 314.96,-191.3 314.49,-191.89 310.59,-188.75 312.14,-194.81 307.17,-185.03 307.17,-185.03"/>
</g>
<!-- node_deliverables -->
<g id="node8" class="node">
<title>node_deliverables</title>
<polygon fill="#2b2b2b" stroke="black" points="345.5,-80 226.5,-80 226.5,-44 345.5,-44 345.5,-80"/>
<text text-anchor="middle" x="286" y="-65.4" font-family="Times,serif" font-size="12.00" fill="#ffffff">Optimized Model</text>
<text text-anchor="middle" x="286" y="-52.4" font-family="Times,serif" font-size="12.00" fill="#ffffff">&amp; Key Findings</text>
</g>
<!-- node_validation&#45;&gt;node_deliverables -->
<g id="edge9" class="edge">
<title>node_validation&#45;&gt;node_deliverables</title>
<path fill="none" stroke="#00bfff" stroke-width="2.5" d="M286,-148.99C286,-133.04 286,-108.91 286,-90.27"/>
<polygon fill="#00bfff" stroke="#00bfff" stroke-width="2.5" points="286,-80.03 290.5,-90.03 286.75,-85.03 286.75,-90.03 286,-90.03 285.25,-90.03 285.25,-85.03 281.5,-90.03 286,-80.03 286,-80.03"/>
<text text-anchor="middle" x="310.5" y="-122.2" font-family="Helvetica,sans-Serif" font-size="11.00" fill="#cccccc"> Finalize </text>
</g>
</g>
</svg>
